<?xml version="1.0" standalone="no"?>
<!DOCTYPE svg PUBLIC "-//W3C//DTD SVG 20010904//EN"
 "http://www.w3.org/TR/2001/REC-SVG-20010904/DTD/svg10.dtd">
<svg version="1.0" xmlns="http://www.w3.org/2000/svg"
 width="75.000000pt" height="75.000000pt" viewBox="0 0 75.000000 75.000000"
 preserveAspectRatio="xMidYMid meet">
<metadata>
Created by potrace 1.11, written by Peter Selinger 2001-2013
</metadata>
<g transform="translate(0.000000,75.000000) scale(0.100000,-0.100000)"
fill="#000000" stroke="none">
<path d="M110 369 l0 -310 43 3 42 3 0 258 c0 141 2 257 5 257 3 -1 27 -23 55
-50 l50 -49 22 21 c13 12 23 27 23 33 0 6 -37 42 -82 78 -69 56 -89 67 -120
67 l-38 0 0 -311z"/>
<path d="M539 678 c-1 -2 -3 -118 -4 -258 -1 -140 -3 -257 -4 -260 -1 -3 -7 2
-14 10 -7 8 -31 32 -53 53 l-40 37 -27 -30 -27 -30 88 -70 c73 -59 93 -70 124
-70 l38 0 0 310 0 310 -40 0 c-22 0 -41 -1 -41 -2z"/>
</g>
</svg>
